<?xml version="1.0" encoding="utf-8"?>
<!-- Generator: Adobe Illustrator 24.1.0, SVG Export Plug-In . SVG Version: 6.00 Build 0)  -->
<svg version="1.1" id="Layer_1" xmlns="http://www.w3.org/2000/svg" xmlns:xlink="http://www.w3.org/1999/xlink" x="0px" y="0px"
	 viewBox="0 0 3300 2200" style="enable-background:new 0 0 3300 2200;" xml:space="preserve">
<style type="text/css">
	.st0{fill:#FFFFFF;}
	.st1{fill:none;stroke:#000000;stroke-width:0.5;}
	.st2{font-family:'Arial-BoldMT';}
	.st3{font-size:12px;}
	.st4{font-family:'ArialMT';}
	.st5{opacity:0.4;fill:#00AEEF;enable-background:new    ;}
	.st6{fill:#27AAE1;}
	.st7{fill:none;stroke:#27AAE1;stroke-width:0.577;}
</style>
<g id="Notes">
	<rect id="artboard" class="st0" width="3300" height="2200"/>
	<line class="st1" x1="263" y1="292" x2="3036" y2="292"/>
	<text transform="matrix(1 0 0 1 263 322)" class="st2 st3">Weight/Scale Variations</text>
	<text transform="matrix(1 0 0 1 536.0362 322)" class="st4 st3">Ultralight</text>
	<text transform="matrix(1 0 0 1 844.7501 322)" class="st4 st3">Thin</text>
	<text transform="matrix(1 0 0 1 1140.1193 322)" class="st4 st3">Light</text>
	<text transform="matrix(1 0 0 1 1428.8282 322)" class="st4 st3">Regular</text>
	<text transform="matrix(1 0 0 1 1725.2202 322)" class="st4 st3">Medium</text>
	<text transform="matrix(1 0 0 1 2018.2563 322)" class="st4 st3">Semibold</text>
	<text transform="matrix(1 0 0 1 2327.9712 322)" class="st4 st3">Bold</text>
	<text transform="matrix(1 0 0 1 2619.6831 322)" class="st4 st3">Heavy</text>
	<text transform="matrix(1 0 0 1 2918.728 322)" class="st4 st3">Black</text>
	<line class="st1" x1="263" y1="1903" x2="3036" y2="1903"/>
	<g transform="matrix(1 0 0 1 263 1933)">
		<path d="M9.2,0.8c4.3,0,7.9-3.6,7.9-7.9c0-4.3-3.6-7.9-7.9-7.9c-4.3,0-7.9,3.6-7.9,7.9C1.4-2.7,5,0.8,9.2,0.8z M9.2-0.7
			c-3.5,0-6.4-2.8-6.4-6.4c0-3.6,2.8-6.4,6.4-6.4c3.6,0,6.4,2.8,6.4,6.4C15.7-3.5,12.8-0.7,9.2-0.7z M9.2-3.4c0.5,0,0.7-0.3,0.7-0.8
			v-2.1h2.2C12.7-6.3,13-6.6,13-7c0-0.5-0.3-0.7-0.8-0.7H10V-10c0-0.5-0.3-0.8-0.7-0.8S8.5-10.5,8.5-10v2.2H6.3
			C5.8-7.8,5.4-7.5,5.4-7c0,0.5,0.4,0.7,0.8,0.7h2.2v2.1C8.5-3.8,8.8-3.4,9.2-3.4z"/>
	</g>
	<g transform="matrix(1 0 0 1 281.506 1933)">
		<path d="M11.7,2.9c5.4,0,10-4.5,10-10c0-5.4-4.5-10-10-10c-5.4,0-10,4.5-10,10C1.7-1.6,6.3,2.9,11.7,2.9z M11.7,1.2
			c-4.6,0-8.3-3.7-8.3-8.3c0-4.6,3.7-8.3,8.3-8.3c4.6,0,8.3,3.7,8.3,8.3C20-2.4,16.3,1.2,11.7,1.2z M11.7-2.4c0.5,0,0.8-0.4,0.8-0.9
			v-2.9h3.1c0.5,0,0.9-0.3,0.9-0.8c0-0.5-0.4-0.8-0.9-0.8h-3.1v-3.1c0-0.6-0.3-0.9-0.8-0.9c-0.5,0-0.8,0.4-0.8,0.9v3.1h-3
			C7.3-7.9,6.9-7.6,6.9-7c0,0.5,0.4,0.8,0.9,0.8h3v2.9C10.9-2.8,11.2-2.4,11.7-2.4z"/>
	</g>
	<g transform="matrix(1 0 0 1 304.924 1933)">
		<path d="M15,5.7c7,0,12.7-5.8,12.7-12.7c0-7-5.8-12.7-12.7-12.7C8-19.8,2.3-14,2.3-7C2.3-0.1,8,5.7,15,5.7z M15,3.9
			C8.9,3.9,4.1-1,4.1-7c0-6,4.8-10.9,10.9-10.9c6,0,10.9,4.9,10.9,10.9C25.9-1,21,3.9,15,3.9z M15-1.1c0.6,0,0.9-0.4,0.9-1v-4.1h4.2
			c0.6,0,1-0.3,1-0.9c0-0.6-0.4-0.9-1-0.9h-4.2v-4.2c0-0.6-0.4-1-0.9-1c-0.6,0-0.9,0.4-0.9,1v4.2H9.8c-0.6,0-1,0.3-1,0.9
			c0,0.6,0.4,0.9,1,0.9h4.2v4.1C14.1-1.5,14.4-1.1,15-1.1z"/>
	</g>
	<text transform="matrix(1 0 0 1 263 1953)" class="st2 st3">Design Variations</text>
	<text transform="matrix(1 0 0 1 263 1971)" class="st4 st3">Symbols are supported in up to nine weights and three scales.</text>
	<text transform="matrix(1 0 0 1 263 1989)" class="st4 st3">For optimal layout with text and other symbols, vertically align</text>
	<text transform="matrix(1 0 0 1 263 2007)" class="st4 st3">symbols with the adjacent text.</text>
	<rect x="776" y="1919" class="st5" width="3" height="14"/>
	<g transform="matrix(1 0 0 1 779 1933)">
		<path d="M10.5,0h1.8L7.2-14.1H5.4L0.2,0h1.8l1.4-4h5.6L10.5,0z M6.3-12L6.3-12l2.3,6.4H4L6.3-12z"/>
	</g>
	<rect x="791.6" y="1919" class="st5" width="3" height="14"/>
	<text transform="matrix(1 0 0 1 776 1953)" class="st2 st3">Margins</text>
	<text transform="matrix(1 0 0 1 776 1971)" class="st4 st3">Leading and trailing margins on the left and right side of each symbol</text>
	<text transform="matrix(1 0 0 1 776 1989)" class="st4 st3">can be adjusted by modifying the width of the blue rectangles.</text>
	<text transform="matrix(1 0 0 1 776 2007)" class="st4 st3">Modifications are automatically applied proportionally to all</text>
	<text transform="matrix(1 0 0 1 776 2025)" class="st4 st3">scales and weights.</text>
	<g transform="matrix(1 0 0 1 1289 1933)">
		<path d="M2.8,3.1l1.5,1.5c0.8,0.8,1.8,0.8,2.7-0.2L17.3-6.7c0.4,0.3,0.8,0.3,1.3,0.2l1-0.2L20.3-6l0,0.5C20.2-5,20.4-4.5,20.8-4
			l0.8,0.8c0.5,0.5,1.2,0.5,1.6,0.1l3.3-3.3c0.5-0.5,0.5-1.1,0-1.6l-0.8-0.8c-0.5-0.5-0.9-0.7-1.4-0.6l-0.5,0.1l-0.7-0.7l0.3-1.1
			c0.1-0.6,0-1-0.6-1.6l-2.4-2.4c-3.5-3.5-8.1-3.4-11.2-0.3c-0.4,0.4-0.5,1-0.2,1.4c0.2,0.4,0.7,0.6,1.4,0.4c1.5-0.4,3-0.3,4.5,0.7
			l-0.6,1.6c-0.2,0.6-0.2,1.1,0,1.5L3,0.4C2.1,1.3,2,2.3,2.8,3.1z M10.7-15.1c2.7-2,6-1.7,8.4,0.7l2.6,2.6c0.2,0.2,0.3,0.4,0.2,0.7
			l-0.4,1.6L23.1-8L24-8c0.3,0,0.4,0,0.6,0.2l0.6,0.6l-2.8,2.7l-0.6-0.6c-0.2-0.2-0.2-0.3-0.2-0.6l0.1-1l-1.6-1.6l-1.6,0.3
			c-0.3,0.1-0.4,0.1-0.7-0.2l-2.2-2.2c-0.2-0.2-0.3-0.4-0.1-0.7l0.9-2.3c-1.6-1.5-3.7-2.4-5.8-1.7c-0.1,0-0.2,0-0.2,0
			C10.6-15,10.6-15.1,10.7-15.1z M4.1,2.4c-0.5-0.5-0.3-0.8,0-1.1l11-10.1l1.2,1.2L6.2,3.3c-0.3,0.3-0.7,0.4-1.1,0L4.1,2.4z"/>
	</g>
	<text transform="matrix(1 0 0 1 1289 1953)" class="st2 st3">Exporting</text>
	<text transform="matrix(1 0 0 1 1289 1971)" class="st4 st3">Symbols should be outlined when exporting to ensure the</text>
	<text transform="matrix(1 0 0 1 1289 1989)" class="st4 st3">design is preserved when submitting to Xcode.</text>
	<text id="template-version" transform="matrix(1 0 0 1 2958.8496 1933)" class="st4 st3">Template v.1.0</text>
	<text transform="matrix(1 0 0 1 2862.5801 1951)" class="st4 st3">Generated from magnifyingglass</text>
	<text transform="matrix(1 0 0 1 2921.9238 1969)" class="st4 st3">Typeset at 100 points</text>
	<text transform="matrix(1 0 0 1 263 726)" class="st4 st3">Small</text>
	<text transform="matrix(1 0 0 1 263 1156)" class="st4 st3">Medium</text>
	<text transform="matrix(1 0 0 1 263 1586)" class="st4 st3">Large</text>
</g>
<g id="Guides">
	<g id="H-reference" transform="matrix(1 0 0 1 339 696)">
		<path class="st6" d="M54.9,0h2.7L30.6-70.5h-2.5L1,0h2.7l9.3-24.5h32.8L54.9,0z M29.2-67.1h0.2l15.4,40.4h-31L29.2-67.1z"/>
	</g>
	<line id="Baseline-S" class="st7" x1="263" y1="696" x2="3036" y2="696"/>
	<line id="Capline-S" class="st7" x1="263" y1="625.5" x2="3036" y2="625.5"/>
	<g id="H-reference_1_" transform="matrix(1 0 0 1 339 1126)">
		<path class="st6" d="M54.9,0h2.7L30.6-70.5h-2.5L1,0h2.7l9.3-24.5h32.8L54.9,0z M29.2-67.1h0.2l15.4,40.4h-31L29.2-67.1z"/>
	</g>
	<line id="Baseline-M" class="st7" x1="263" y1="1126" x2="3036" y2="1126"/>
	<line id="Capline-M" class="st7" x1="263" y1="1055.5" x2="3036" y2="1055.5"/>
	<g id="H-reference_2_" transform="matrix(1 0 0 1 339 1556)">
		<path class="st6" d="M54.9,0h2.7L30.6-70.5h-2.5L1,0h2.7l9.3-24.5h32.8L54.9,0z M29.2-67.1h0.2l15.4,40.4h-31L29.2-67.1z"/>
	</g>
	<line id="Baseline-L" class="st7" x1="263" y1="1556" x2="3036" y2="1556"/>
	<line id="Capline-L" class="st7" x1="263" y1="1485.5" x2="3036" y2="1485.5"/>
	<rect id="left-margin" x="1392.6" y="1030.8" class="st5" width="11.2" height="119.3"/>
	<rect id="right-margin" x="1495.8" y="1030.8" class="st5" width="11.2" height="119.3"/>
</g>
<g id="Symbols">
	<g id="Black-L" transform="matrix(1 0 0 1 2856.62 1556)">
		<path d="M67.5,7.3c8.6,0,16.7-2.1,24-5.8l20.9,20.8c3,3,7.1,4.4,11.2,4.4c8.8,0,15.5-6.8,15.5-15.6c0-4.1-1.4-8-4.4-11.1
			l-20.6-20.6c4.2-7.6,6.5-16.2,6.5-25.3c0-29.2-23.9-53.1-53.1-53.1c-29.1,0-53.1,23.9-53.1,53.1C14.5-16.7,38.4,7.3,67.5,7.3z
			 M98.7-45.8 M36.4-45.8"/>
	</g>
	<g id="Heavy-L" transform="matrix(1 0 0 1 2560.61 1556)">
		<path d="M66.3,5.5C75.4,5.5,84,3.2,91.5-1l23.2,23.2c2.6,2.6,6.1,3.8,9.7,3.8c7.6,0,13.4-5.9,13.4-13.4c0-3.5-1.2-6.9-3.9-9.5
			l-22.9-23c4.6-7.8,7.3-16.8,7.3-26.4c0-28.5-23.4-51.9-51.9-51.9c-28.5,0-51.9,23.4-51.9,51.9S37.8,5.5,66.3,5.5z M99.4-46.3
			 M33.3-46.3"/>
	</g>
	<g id="Bold-L" transform="matrix(1 0 0 1 2264.73 1556)">
		<path d="M65,3.6c9.6,0,18.7-2.7,26.3-7.5l25.9,25.9c2.1,2.1,5,3.1,7.9,3.1c6.2,0,10.9-4.8,10.9-11c0-2.9-0.9-5.6-3.1-7.8
			l-25.7-25.7c5.2-8,8.3-17.4,8.3-27.6c0-27.8-22.8-50.5-50.5-50.5c-27.8,0-50.5,22.8-50.5,50.5C14.5-19.2,37.2,3.6,65,3.6z
			 M100.1-46.9 M29.9-46.9"/>
	</g>
	<g id="Semibold-L" transform="matrix(1 0 0 1 1968.56 1556)">
		<path d="M64.1,2.2c10,0,19.3-3,27.1-8.2L119,22c1.8,1.8,4.2,2.6,6.6,2.6c5.4,0,9.3-4.1,9.3-9.3c0-2.4-0.8-4.7-2.7-6.6L104.7-19
			c5.6-8,9-17.8,9-28.3c0-27.3-22.4-49.6-49.6-49.6c-27.3,0-49.6,22.3-49.6,49.6C14.5-20.1,36.8,2.2,64.1,2.2z M100.6-47.3
			 M27.5-47.3"/>
	</g>
	<g id="Medium-L" transform="matrix(1 0 0 1 1672.29 1556)">
		<path d="M63.3,1.3c10.3,0,19.9-3.2,27.8-8.7l29.3,29.3c1.5,1.5,3.6,2.3,5.7,2.3c4.6,0,8-3.6,8-8c0-2.1-0.7-4.2-2.2-5.7l-29.2-29.2
			c6-8.2,9.6-18.2,9.6-29c0-26.9-22-48.9-48.9-48.9c-26.9,0-48.9,22-48.9,48.9C14.5-20.8,36.5,1.3,63.3,1.3z M101-47.7 M25.7-47.7"
			/>
	</g>
	<g id="Regular-L" transform="matrix(1 0 0 1 1376.11 1556)">
		<path d="M62.4-0.1c10.7,0,20.6-3.5,28.5-9.4l31.2,31.3c1.2,1.2,2.8,1.9,4.5,1.9c3.7,0,6.3-2.9,6.3-6.4c0-1.7-0.6-3.3-1.8-4.5
			l-31.1-31.2c6.4-8.2,10.3-18.5,10.3-29.6c0-26.4-21.6-47.9-48-47.9C36-96,14.5-74.5,14.5-48S36-0.1,62.4-0.1z M101.5-48 M23.3-48"
			/>
	</g>
	<g id="Light-L" transform="matrix(1 0 0 1 1079.48 1556)">
		<path d="M61.8-1.2c10.9,0,20.9-3.7,28.9-9.9l33.2,33.2c0.9,1,2.3,1.6,3.7,1.6c3.2,0,5.3-2.4,5.3-5.4c0-1.4-0.5-2.7-1.5-3.7
			l-33-33.1c6.7-8.2,10.7-18.6,10.7-30c0-26-21.3-47.3-47.3-47.3S14.5-74.5,14.5-48.5S35.7-1.2,61.8-1.2z M102.3-48.5 M21.2-48.5"/>
	</g>
	<g id="Thin-L" transform="matrix(1 0 0 1 782.863 1556)">
		<path d="M60.9-2.6c11.1,0,21.4-4,29.4-10.6L126,22.6c0.6,0.6,1.6,1.1,2.7,1.1c2.5,0,4-1.9,4-4c0-1-0.4-1.9-1.2-2.7L95.9-18.6
			c7.1-8.2,11.4-18.8,11.4-30.5c0-25.5-20.9-46.5-46.4-46.5S14.5-74.6,14.5-49S35.4-2.6,60.9-2.6z M103.4-49 M18.4-49"/>
	</g>
	<g id="Ultralight-L" transform="matrix(1 0 0 1 486.225 1556)">
		<path d="M60.5-3.3c11.3,0,21.6-4.2,29.7-11l36.9,37.1c0.5,0.4,1.3,0.9,2.1,0.9c2.1,0,3.3-1.7,3.3-3.3c0-0.8-0.3-1.5-0.9-2.1
			l-36.9-37c7.4-8.2,11.8-18.9,11.8-30.7c0-25.3-20.7-46-46-46c-25.3,0-46,20.8-46,46S35.2-3.3,60.5-3.3z M104-49.3 M17-49.3"/>
	</g>
	<g id="Black-M" transform="matrix(1 0 0 1 2872.93 1126)">
		<path d="M53.7-0.5c6.1,0,11.9-1.3,17.2-3.7l14,14c2.8,2.8,6.6,4.1,10.4,4.1c8.2,0,14.5-6.3,14.5-14.5c0-3.7-1.3-7.4-4.2-10.3
			L91.8-24.6c2.7-5.6,4.2-11.8,4.2-18.4c0-23.2-19.2-42.4-42.4-42.4S11.2-66.2,11.2-43C11.2-19.7,30.4-0.5,53.7-0.5z M76.1-43
			 M31.2-43"/>
	</g>
	<g id="Heavy-M" transform="matrix(1 0 0 1 2576.97 1126)">
		<path d="M52.5-2.1c6.6,0,12.8-1.6,18.4-4.4L87,9.5c2.3,2.4,5.6,3.5,8.9,3.5c7,0,12.4-5.4,12.4-12.4c0-3.2-1.1-6.3-3.6-8.8
			L88.8-23.9c3.2-5.8,4.9-12.5,4.9-19.5c0-22.7-18.6-41.3-41.3-41.3c-22.6,0-41.3,18.6-41.3,41.3C11.2-20.8,29.9-2.1,52.5-2.1z
			 M76.6-43.4 M28.4-43.4"/>
	</g>
	<g id="Bold-M" transform="matrix(1 0 0 1 2281.14 1126)">
		<path d="M51.2-4C58.3-4,65-5.9,70.9-9.2L89.3,9.3c1.9,1.9,4.5,2.8,7.2,2.8c5.7,0,10-4.4,10-10c0-2.6-0.9-5.1-2.8-7.1L85.4-23.2
			c3.7-6.1,5.9-13.1,5.9-20.7c0-21.9-18-40-40-40s-40,18.1-40,40C11.2-22,29.2-4,51.2-4z M77.1-43.9 M25.3-43.9"/>
	</g>
	<g id="Semibold-M" transform="matrix(1 0 0 1 1985.01 1126)">
		<path d="M50.3-5.2c7.5,0,14.5-2.1,20.5-5.9L90.9,9.1c1.6,1.6,3.8,2.4,6.1,2.4c4.7,0,8.3-3.7,8.3-8.4c0-2.2-0.7-4.3-2.4-6L83-22.9
			c4.1-6.2,6.4-13.5,6.4-21.4c0-21.5-17.6-39.1-39.1-39.1S11.2-65.8,11.2-44.3S28.9-5.2,50.3-5.2z M77.5-44.3 M23.1-44.3"/>
	</g>
	<g id="Medium-M" transform="matrix(1 0 0 1 1688.77 1126)">
		<path d="M49.7-6.2c7.8,0,15-2.3,21.1-6.3L92.1,8.9c1.4,1.4,3.2,2.1,5.2,2.1c4.1,0,7-3.2,7-7.2c0-1.9-0.6-3.7-2-5L81.1-22.6
			c4.4-6.2,7-13.8,7-22C88.1-65.7,70.8-83,49.7-83S11.2-65.7,11.2-44.6S28.5-6.2,49.7-6.2z M77.8-44.6 M21.5-44.6"/>
	</g>
	<g id="Regular-M" transform="matrix(1 0 0 1 1392.64 1126)">
		<path d="M48.8-7.4c8.2,0,15.7-2.6,21.8-7L93.8,8.7c1.1,1.1,2.5,1.6,4,1.6c3.2,0,5.4-2.4,5.4-5.6c0-1.5-0.5-2.8-1.6-3.9l-23-23
			c4.8-6.3,7.7-14.2,7.7-22.8c0-20.7-16.9-37.5-37.5-37.5S11.2-65.6,11.2-44.9S28.1-7.4,48.8-7.4z M78.2-44.9 M19.3-44.9"/>
	</g>
	<g id="Light-M" transform="matrix(1 0 0 1 1096 1126)">
		<path d="M48.2-8.3c8.3,0,16-2.8,22.2-7.5L95.3,9.1c0.8,0.8,2,1.3,3.2,1.3c2.7,0,4.5-2.1,4.5-4.6c0-1.2-0.4-2.3-1.3-3.2L77-22.2
			c5.1-6.3,8.2-14.4,8.2-23.1c0-20.3-16.6-37-37-37c-20.4,0-37,16.7-37,37C11.2-25,27.8-8.3,48.2-8.3z M79-45.3 M17.4-45.3"/>
	</g>
	<g id="Thin-M" transform="matrix(1 0 0 1 799.367 1126)">
		<path d="M47.4-9.6c8.6,0,16.5-3,22.7-8.1L97.2,9.5c0.5,0.6,1.4,1,2.3,1c2.1,0,3.4-1.6,3.4-3.4c0-0.9-0.3-1.7-1-2.3l-27-27.1
			c5.4-6.3,8.7-14.6,8.7-23.5C83.6-65.7,67.3-82,47.4-82c-19.9,0-36.2,16.3-36.2,36.2C11.2-25.9,27.5-9.6,47.4-9.6z M79.9-45.8
			 M14.9-45.8"/>
	</g>
	<g id="Ultralight-M" transform="matrix(1 0 0 1 502.704 1126)">
		<path d="M47-10.3c8.7,0,16.7-3.2,22.9-8.4L98.2,9.7c0.4,0.4,1.1,0.8,1.8,0.8c1.8,0,2.8-1.4,2.8-2.8c0-0.6-0.2-1.3-0.8-1.8
			L73.8-22.4c5.6-6.3,9.1-14.6,9.1-23.7c0-19.7-16.2-35.8-35.8-35.8S11.2-65.7,11.2-46C11.2-26.4,27.3-10.3,47-10.3z M80.5-46
			 M13.6-46"/>
	</g>
	<g id="Black-S" transform="matrix(1 0 0 1 2886.09 696)">
		<path d="M41.9-8.2c4.8,0,9.4-1.1,13.6-2.9L66.6,0c2.1,2.1,5.1,3.2,8.1,3.2C81,3.2,85.8-1.7,85.8-8c0-2.9-1-5.7-3.2-8L71.7-26.9
			c2.1-4.4,3.4-9.3,3.4-14.5c0-18.2-15-33.2-33.2-33.2c-18.2,0-33.2,15-33.2,33.2S23.8-8.2,41.9-8.2z M59.6-41.3 M24.3-41.3"/>
	</g>
	<g id="Heavy-S" transform="matrix(1 0 0 1 2589.96 696)">
		<path d="M41.1-9.3c5.2,0,10.1-1.3,14.5-3.5L68.1-0.2c1.9,1.9,4.4,2.7,6.9,2.7c5.5,0,9.7-4.2,9.7-9.7c0-2.5-0.8-5-2.8-6.9
			L69.6-26.4c2.5-4.5,3.9-9.8,3.9-15.2C73.5-59.4,58.9-74,41.1-74C23.4-74,8.8-59.4,8.8-41.6C8.8-23.9,23.4-9.3,41.1-9.3z
			 M59.9-41.6 M22.3-41.6"/>
	</g>
	<g id="Bold-S" transform="matrix(1 0 0 1 2293.91 696)">
		<path d="M40.2-10.5c5.5,0,10.8-1.5,15.3-4.1L69.7-0.5c1.6,1.6,3.6,2.3,5.8,2.3c4.5,0,7.9-3.5,7.9-8c0-2.1-0.7-4.2-2.2-5.7l-14-14
			c2.8-4.7,4.5-10.3,4.5-16.2c0-17.2-14.2-31.4-31.4-31.4C22.9-73.4,8.8-59.2,8.8-42C8.8-24.7,22.9-10.5,40.2-10.5z M60.3-42
			 M20.2-42"/>
	</g>
	<g id="Semibold-S" transform="matrix(1 0 0 1 1997.64 696)">
		<path d="M39.6-11.4c5.8,0,11.3-1.6,15.9-4.5L70.8-0.6c1.3,1.3,3.1,2,4.9,2c3.9,0,6.8-3,6.8-6.8c0-1.8-0.6-3.5-2-4.8L65.4-25.5
			c3.1-4.8,4.9-10.6,4.9-16.7C70.4-59.1,56.5-73,39.6-73C22.7-73,8.8-59.1,8.8-42.2C8.8-25.3,22.7-11.4,39.6-11.4z M60.5-42.2
			 M18.7-42.2"/>
	</g>
	<g id="Medium-S" transform="matrix(1 0 0 1 1701.27 696)">
		<path d="M39.1-12.1c6,0,11.6-1.8,16.4-4.8L71.6-0.8c1.2,1.2,2.7,1.7,4.3,1.7c3.4,0,5.9-2.6,5.9-5.9c0-1.6-0.5-3.1-1.7-4.2
			l-16-16.1c3.3-4.9,5.3-10.7,5.3-17.1c0-16.7-13.6-30.3-30.3-30.3S8.8-59.1,8.8-42.4C8.8-25.7,22.4-12.1,39.1-12.1z M60.7-42.4
			 M17.5-42.4"/>
	</g>
	<g id="Regular-S" transform="matrix(1 0 0 1 1405 696)">
		<path d="M38.5-12.9c6.3,0,12.1-2,16.9-5.3L72.8-0.9c0.9,0.9,2.1,1.4,3.4,1.4c2.7,0,4.7-2.1,4.7-4.8c0-1.3-0.4-2.5-1.4-3.4L62.4-25
			c3.7-4.9,5.8-11,5.8-17.6c0-16.4-13.3-29.7-29.7-29.7C22.1-72.3,8.8-59,8.8-42.6C8.8-26.3,22.1-12.9,38.5-12.9z M60.9-42.6
			 M16.1-42.6"/>
	</g>
	<g id="Light-S" transform="matrix(1 0 0 1 1108.36 696)">
		<path d="M38-13.8c6.4,0,12.4-2.1,17.2-5.7L74-0.6c0.8,0.7,1.8,1.1,2.8,1.1c2.3,0,3.9-1.8,3.9-4c0-1.1-0.3-2.1-1.1-2.8L60.9-25
			c3.9-4.9,6.2-11.2,6.2-17.9C67.1-59,54.1-72.2,38-72.2C21.9-72.2,8.8-59,8.8-43C8.8-26.9,21.9-13.8,38-13.8z M61.6-43 M14.4-43"/>
	</g>
	<g id="Thin-S" transform="matrix(1 0 0 1 811.72 696)">
		<path d="M37.3-14.9c6.6,0,12.8-2.3,17.7-6.2L75.8-0.3c0.5,0.5,1.2,0.8,2,0.8c1.8,0,2.9-1.3,2.9-2.9c0-0.7-0.2-1.4-0.8-2L59.1-25.1
			c4.2-4.9,6.7-11.4,6.7-18.3c0-15.7-12.8-28.5-28.5-28.5S8.8-59.1,8.8-43.4S21.6-14.9,37.3-14.9z M12.2-43.4 M62.5-43.4"/>
	</g>
	<g id="Ultralight-S" transform="matrix(1 0 0 1 515.058 696)">
		<path d="M37-15.5c6.8,0,13-2.4,17.9-6.5L76.7-0.1c0.3,0.4,0.9,0.7,1.6,0.7c1.5,0,2.3-1.1,2.3-2.3c0-0.6-0.2-1.1-0.6-1.6L58.1-25.1
			c4.3-4.9,7-11.4,7-18.5c0-15.5-12.6-28.2-28.1-28.2S8.8-59.1,8.8-43.7C8.8-28.2,21.5-15.5,37-15.5z M11-43.7 M62.9-43.7"/>
	</g>
</g>
</svg>
